<?xml version="1.0" encoding="UTF-8" standalone="no"?><!DOCTYPE svg PUBLIC "-//W3C//DTD SVG 1.1//EN" "http://www.w3.org/Graphics/SVG/1.1/DTD/svg11.dtd"><svg width="100%" height="100%" viewBox="0 0 598 70" version="1.1" xmlns="http://www.w3.org/2000/svg" xmlns:xlink="http://www.w3.org/1999/xlink" xml:space="preserve" xmlns:serif="http://www.serif.com/" style="fill-rule:evenodd;clip-rule:evenodd;stroke-linejoin:round;stroke-miterlimit:1.41421;"><g id="logo"><g transform="matrix(0.385093,0,0,0.385093,-4604.66,-2918.95)"><text x="11947px" y="7743.32px" style="font-family:'AvenirNext-Heavy', 'Avenir Next', sans-serif;font-weight:900;font-size:194.758px;fill:none;stroke:#eed019;stroke-width:1.56px;">n<tspan x="12072.8px 12198px 12384.2px 12515.5px 12634.3px 12717px " y="7743.32px 7743.32px 7743.32px 7743.32px 7743.32px 7743.32px ">umbers</tspan></text><text x="11947px" y="7743.32px" style="font-family:'AvenirNext-Heavy', 'Avenir Next', sans-serif;font-weight:900;font-size:194.758px;fill:#ffd728;">n<tspan x="12072.8px 12198px 12384.2px 12515.5px 12634.3px 12717px " y="7743.32px 7743.32px 7743.32px 7743.32px 7743.32px 7743.32px ">umbers</tspan></text></g><g transform="matrix(0.385093,0,0,0.385093,-4268.36,-2918.65)"><text x="11947px" y="7743.32px" style="font-family:'AvenirNext-Regular', 'Avenir Next', sans-serif;font-size:219.103px;fill:none;stroke:#eed019;stroke-width:1.43px;">a<tspan x="12053px 12117px " y="7743.32px 7743.32px ">re</tspan></text><text x="11947px" y="7743.32px" style="font-family:'AvenirNext-Regular', 'Avenir Next', sans-serif;font-size:219.103px;fill:#ffd728;">a<tspan x="12053px 12117px " y="7743.32px 7743.32px ">re</tspan></text></g><g transform="matrix(0.0164236,0,0,0.0109179,446.684,6.25004)"><g transform="matrix(45.666,0,0,68.6945,0,0)"><text x="0px" y="75.6px" style="font-family:'AvenirNext-Heavy', 'Avenir Next', sans-serif;font-weight:900;font-size:100px;fill:none;stroke:#eed019;stroke-width:0.87px;">n<tspan x="62.6px 92.5px 141.1px " y="75.6px 75.6px 75.6px ">ice</tspan></text></g><g transform="matrix(45.666,0,0,68.6945,0,0)"><text x="0px" y="75.6px" style="font-family:'AvenirNext-Heavy', 'Avenir Next', sans-serif;font-weight:900;font-size:100px;fill:#ffd728;">n<tspan x="62.6px 92.5px 141.1px " y="75.6px 75.6px 75.6px ">ice</tspan></text></g></g></g></svg>